<svg id="Layer_2" data-name="Layer 2" xmlns="http://www.w3.org/2000/svg" viewBox="0 0 1013.96 1013.96"><title>Sandwich</title><path d="M507,61.39c-233,0-421.92,162.85-421.92,395.87a424.58,424.58,0,0,0,6,71.34,124.32,124.32,0,0,1,68.35,35A125.65,125.65,0,0,1,171,577c24.43-44.9,71.59-77.19,124.12-79.19A147.93,147.93,0,0,1,340,502.9a50.28,50.28,0,0,1,36.93,51.22A160.34,160.34,0,0,1,430,816a163.25,163.25,0,0,1-17.36,15A125.11,125.11,0,0,1,491.07,952.5q7.74.07,15.91.07c58.75,0,101.33-2.84,128.13-5.47a33,33,0,0,0,29.47-37.67l-3.64-24.84q-4.11-32.79-6.3-65.78L652,778.91,637.13,555.05c-1.55-23.28,13.06-44.81,35.44-51.4a147.35,147.35,0,0,1,40.49-6c80.66-.65,148.38,66.21,148.71,146.88v1.66c-.08,11.15,14.9,14.83,20,4.93A420.15,420.15,0,0,0,928.9,457.26C928.9,224.24,740,61.39,507,61.39Z"/></svg>