<svg id="Layer_2" data-name="Layer 2" xmlns="http://www.w3.org/2000/svg" viewBox="0 0 1013.96 1013.96"><title>Sandwich</title><path d="M715,453.59c-1.2-3.84-2.56-7.67-4.08-11.46q-2.58-6.42-5.66-12.48a152.91,152.91,0,0,0-60.78-63.78q-3-1.72-6.14-3.32a153.59,153.59,0,0,0-94.18-15q-6.33,1-12.65,2.57c-2.9.72-5.8,1.53-8.68,2.43a177.46,177.46,0,0,1-3.76,29.29l1.77-.73a127.32,127.32,0,1,1-80,115.94c0-.86,0-1.72.08-2.58a178.68,178.68,0,0,1-26.11,13.82,152.62,152.62,0,0,0,6.29,35.38c1.22,4.05,2.62,8.09,4.2,12.09l.33.83a154,154,0,0,0,127.16,95.72,151.64,151.64,0,0,0,37.5-.8c4.32-.62,8.65-1.44,13-2.45a156,156,0,0,0,22.24-7A153.7,153.7,0,0,0,715,453.59Z"/><path d="M827.37,448.42a276.27,276.27,0,0,0-12-66.75q-3.52-11.31-8.06-22.45a280.75,280.75,0,0,0-18.86-37.73A278,278,0,0,0,453.56,203.27a178.67,178.67,0,0,1,36.67,38.11,230.28,230.28,0,0,1,115.91-.79A230.42,230.42,0,1,1,493.53,687.46q-9.11-2.3-17.93-5.29a161,161,0,0,1-1.27,49.32q10.46,3,21.11,5.08a276.77,276.77,0,0,0,175.14-22.21q10.35-5,20.41-10.94l1.38-.81a278.31,278.31,0,0,0,135-254.19Z"/><path d="M886.37,273.18A446.31,446.31,0,0,0,542.23,62.77Q524.79,61.39,507,61.39q-20.06,0-39.66,1.75A442.63,442.63,0,0,0,330,97.91q.68,6.74.67,13.66a138.39,138.39,0,0,1-12.06,56.69A179.89,179.89,0,0,1,345,166.33q8.58,0,17,.8l1.28-.55A369.53,369.53,0,1,1,507,876.41a374.16,374.16,0,0,1-39.15-2,124.73,124.73,0,0,1,23.26,77.91q6.63.24,13.32.27c.85,0,1.71,0,2.57,0,144.51,0,272.95-68.79,354.36-175.42A444,444,0,0,0,940.13,612q4.47-18.47,7.37-37.52A449.12,449.12,0,0,0,952.57,507,443.42,443.42,0,0,0,886.37,273.18Z"/></svg>