<svg id="Layer_2" data-name="Layer 2" xmlns="http://www.w3.org/2000/svg" viewBox="0 0 891.18 891.18"><defs><style>.cls-1{fill:#ffed80;}.cls-2{fill:#ffe73b;}.cls-3{fill:#fffa92;}</style></defs><title>Sandwich</title><rect class="cls-1" width="891.18" height="889.2"/><path class="cls-2" d="M806.08,183.68,583.28,21.81H307.89L85.1,183.68,0,445.59,85.1,707.5,307.89,869.37H583.28L806.08,707.5l85.1-261.91ZM445.59,563.42A117.83,117.83,0,1,1,563.42,445.59,117.84,117.84,0,0,1,445.59,563.42Z"/><path class="cls-1" d="M575.16,46.81,784.81,199.13l80.08,246.46L784.81,692.05,575.16,844.37H316L106.37,692.05,26.29,445.59l80.08-246.46L316,46.81H575.16M445.59,588.42c78.75,0,142.83-64.08,142.83-142.83S524.34,302.76,445.59,302.76,302.76,366.83,302.76,445.59s64.07,142.83,142.83,142.83M583.28,21.81H307.89L85.1,183.68,0,445.59,85.1,707.5,307.89,869.37H583.28L806.08,707.5l85.1-261.91-85.1-261.91L583.28,21.81ZM445.59,563.42A117.83,117.83,0,1,1,563.42,445.59,117.84,117.84,0,0,1,445.59,563.42Z"/><polygon class="cls-3" points="378.89 0 428.75 0 403.82 482.63 378.89 0"/><polygon class="cls-3" points="462.42 0 512.29 0 487.36 482.63 462.42 0"/><polygon class="cls-3" points="512.29 891.18 462.42 891.18 487.36 408.55 512.29 891.18"/><polygon class="cls-3" points="428.75 891.18 378.89 891.18 403.82 408.55 428.75 891.18"/><polygon class="cls-3" points="216.01 864.72 177.07 833.59 497.92 472.2 216.01 864.72"/><polygon class="cls-3" points="150.77 812.56 111.83 781.42 432.68 420.04 150.77 812.56"/><polygon class="cls-3" points="697.51 6.22 736.46 37.35 415.61 398.74 697.51 6.22"/><polygon class="cls-3" points="762.76 58.38 801.7 89.52 480.85 450.9 762.76 58.38"/><polygon class="cls-3" points="108.39 87.86 149.22 59.23 405.96 468.66 108.39 87.86"/><polygon class="cls-3" points="176.78 39.89 217.6 11.26 474.34 420.69 176.78 39.89"/><polygon class="cls-3" points="797.13 791.08 756.31 819.71 499.57 410.28 797.13 791.08"/><polygon class="cls-3" points="728.75 839.05 687.93 867.68 431.19 458.25 728.75 839.05"/><polygon class="cls-3" points="-33.09 359.98 -17.25 312.7 432.43 489.75 -33.09 359.98"/><polygon class="cls-3" points="-6.54 280.78 9.31 233.5 458.98 410.55 -6.54 280.78"/><polygon class="cls-3" points="938.62 516.96 922.77 564.24 473.1 387.19 938.62 516.96"/><polygon class="cls-3" points="912.07 596.16 896.22 643.44 446.55 466.39 912.07 596.16"/><polygon class="cls-3" points="12.64 659.73 -2.12 612.11 466.23 492.96 12.64 659.73"/><polygon class="cls-3" points="-12.1 579.95 -26.87 532.32 441.49 413.18 -12.1 579.95"/><polygon class="cls-3" points="892.88 219.21 907.65 266.83 439.3 385.98 892.88 219.21"/><polygon class="cls-3" points="917.63 298.99 932.39 346.62 464.04 465.76 917.63 298.99"/></svg>