<svg id="Layer_2" data-name="Layer 2" xmlns="http://www.w3.org/2000/svg" viewBox="0 0 891.18 891.18"><defs><style>.cls-1{fill:#e07859;}.cls-2{fill:#e29393;}</style></defs><title>Sandwich</title><rect class="cls-1" width="891.18" height="891.18"/><polygon class="cls-2" points="650.86 889.01 649.59 891.18 891.18 891.18 891 0.05 787.55 0 787.52 0.62 650.86 889.01"/><path class="cls-1" d="M859,.05l-148.6,891s-22.52-.6-59.54-2c-45.15-1.75-111.84-4.73-185.58-9.35-16.72-1-33.79-2.17-51.06-3.39-98-6.92-202.27-16.71-281.71-30.22l-11.76-90.86L114,703.26l-12.5-96.61L95,555.85l-12.39-95.6L76,409.17,65.1,325.34l-6.28-48.5L46.19,179.27l-6.35-49-7.66-59.2c16.23-7.5,38.24-14.2,64.65-20.2C118.26,46,142.57,41.58,169,37.61,272.43,22.06,408.46,13,532.4,7.61c17.23-.74,34.23-1.41,50.87-2,81.15-2.94,153.88-4.32,204.25-5C832,.05,859,.05,859,.05Z"/><path class="cls-2" d="M789.73-9.06l-8,52.33A320.76,320.76,0,0,0,673,39c-31.26,4-62.91,12.38-94.55,25,1.63-34.24,2.34-57.94,2.6-68-17,.63-34.36,1.31-52,2.07-.38,13.28-1.33,42.51-3.44,83.62-61.95-.9-246.41-7.47-367.82-53C130.76,32.79,105.93,37.29,84,42.27c62.56,34.55,157.92,58.52,283.74,71.3,66.63,6.78,124.5,8.57,155.57,9-1.78,29.44-4.06,62.89-7,99.41-85.82-7.07-368.74-34.6-490.56-98.6l6.49,50.09c145.46,58.74,400.5,83,480.62,89.37q-1.33,15-2.79,30.47C508,315.24,505.67,338.54,503,363c-85.41-6.31-337.56-29.5-457.81-89.79l6.41,49.56c138.78,54.55,365,75.11,446.75,81-3.63,30.68-7.76,62.76-12.42,95.8-75-4.59-311-24-423.23-91.15l6.75,52.19c61.52,27.5,147.21,49,255.58,64.11,65.61,9.15,122.93,13.54,155,15.5-5.67,37.48-12.05,75.91-19.18,114.67-68.39-7.25-266.82-33-378.71-96.6l6.72,51.9c58.29,26.38,134.81,48.35,228.36,65.53,57.37,10.53,107.05,16.59,135.92,19.64-6.36,32.17-13.26,64.42-20.75,96.41-60.59-4.14-230.29-21-330.76-82.87l6.88,53.06c52.66,24.71,119.85,43.78,200.58,56.91,46.68,7.6,87.43,11.42,113.48,13.29q-6.82,27-14.21,53.52c17.64,1.24,35.08,2.4,52.16,3.46q8.75-31.54,16.64-63.76c61.51-33.2,122.1-39.79,180.22-19.54,2.27.79,4.48,1.62,6.67,2.46L650.1,898.65c37.83,1.47,60.84,2.09,60.84,2.09L862.77-9.64S835.15-9.64,789.73-9.06ZM670.54,765.84c-44.81-14.09-107.72-21.06-181,6.66,6.19-27.7,11.93-55.51,17.29-83.23,66.14-33,126.54-42.18,179.72-27.22Zm22.32-145.12C650.4,611,590.54,609.36,516.25,638.21c6.33-35.75,12-71.11,17.14-105.61,55.89-27.81,107-38.3,152.1-31.16a159.5,159.5,0,0,1,24.8,6Zm23.84-155c-6.29-1.62-12.91-3-19.84-4.16-48.76-8-101.17-.92-156.36,20.93,3.9-28.77,7.41-56.71,10.54-83.54,57.61-29.48,110.25-40.72,156.51-33.39a159.69,159.69,0,0,1,23.7,5.61Zm20.95-136.17c-6-1.5-12.2-2.81-18.73-3.88C668.41,317.4,614,325.26,556.59,349c1.93-18.27,3.7-35.87,5.28-52.65q2-21.06,3.73-41.17c66.8-33.17,128.18-43.58,182.61-30.9,1.85.43,3.65.89,5.42,1.36ZM760,184.41c-31.07-6.83-64.07-8-98.24-3.4-30,4-60.82,12.52-92.16,25.3,2.66-34.82,4.74-66.59,6.35-94.39,66.66-32.38,130.93-42.29,191.26-29.43,2.79.61,5.52,1.24,8.17,1.9Z"/></svg>