<svg id="Layer_2" data-name="Layer 2" xmlns="http://www.w3.org/2000/svg" viewBox="0 0 891.18 891.18"><defs><style>.cls-1{fill:#6fbd4c;}.cls-2{fill:none;stroke:#8bcc76;stroke-linecap:round;stroke-miterlimit:10;stroke-width:54px;}</style></defs><title>Sandwich</title><rect class="cls-1" y="0.39" width="892.74" height="892.74"/><path class="cls-1" d="M891.26,267.77a89.13,89.13,0,0,0-89.13-89.13A89.13,89.13,0,1,0,713,89.52a89.13,89.13,0,1,0-178.25,0,89.13,89.13,0,0,0-178.26,0,89.13,89.13,0,1,0-178.25,0,89.13,89.13,0,1,0-89.12,89.12,89.13,89.13,0,0,0,0,178.26,89.13,89.13,0,1,0,0,178.25,89.13,89.13,0,1,0,0,178.25,89.13,89.13,0,1,0,89.12,89.13,89.13,89.13,0,0,0,178.25,0,89.13,89.13,0,0,0,178.26,0,89.13,89.13,0,0,0,178.25,0,89.13,89.13,0,1,0,89.12-89.13,89.13,89.13,0,1,0,0-178.25,89.13,89.13,0,1,0,0-178.25A89.13,89.13,0,0,0,891.26,267.77Z"/><path class="cls-2" d="M416,473.72s52.44,214.7,313.21,182.77"/><path class="cls-2" d="M164.56,181.39S158,301.72,302.53,327.9"/><path class="cls-2" d="M316.57,606.29S331.14,740.59,456,754"/><path class="cls-2" d="M523.75,350.36S590.44,506.05,772,459.89"/><path class="cls-2" d="M201.93,464.49s-50.29,25.88-100.83-9.71"/><path class="cls-2" d="M445.63,208.52s-51.35-18.19-57.93-72.46"/><path class="cls-2" d="M149.53,736.3S294.12,296,735.78,159.21"/></svg>