<svg id="Layer_2" data-name="Layer 2" xmlns="http://www.w3.org/2000/svg" viewBox="0 0 1013.96 1013.96"><title>Sandwich</title><path d="M917.12,226.86a87.49,87.49,0,0,0-75.77-15.78l-36.07,9.2A9.29,9.29,0,0,1,794,209l9.2-36.07A88,88,0,0,0,717.89,63.13H296.58a88,88,0,0,0-85.29,109.78l9.2,36.07a9.29,9.29,0,0,1-11.3,11.3l-36.07-9.2A88,88,0,0,0,63.34,296.37V527.2a124.93,124.93,0,0,1,78.73,21.72V296.37a9.3,9.3,0,0,1,11.59-9l36.07,9.2a87.24,87.24,0,0,0,64-8l134,134a24.76,24.76,0,0,0,35-35l-134-134a87.24,87.24,0,0,0,8-64l-9.2-36.07a9.3,9.3,0,0,1,9-11.59H717.89a9.3,9.3,0,0,1,9,11.59l-9.2,36.07a87.21,87.21,0,0,0,7.13,62.42L589.25,387.52a24.76,24.76,0,0,0,35,35L759.13,287.67a86.56,86.56,0,0,0,43.52,11.69,89.59,89.59,0,0,0,22.09-2.79l36.07-9.2a9.3,9.3,0,0,1,11.59,9V717.68a9.3,9.3,0,0,1-11.59,9l-36.07-9.2a87.24,87.24,0,0,0-64,8L624.27,589a24.76,24.76,0,0,0-35,35L725.69,760.5a87.25,87.25,0,0,0-8,64l9.2,36.07a9.3,9.3,0,0,1-9,11.6H466.51a124.75,124.75,0,0,1,24.95,78.72H717.89a88,88,0,0,0,85.29-109.77L794,805.07a9.29,9.29,0,0,1,11.3-11.3l36.07,9.2a88,88,0,0,0,109.78-85.29V296.37A87.49,87.49,0,0,0,917.12,226.86Z"/></svg>