<svg id="Layer_2" data-name="Layer 2" xmlns="http://www.w3.org/2000/svg" viewBox="0 0 891.18 891.18"><defs><style>.cls-1{fill:#d89265;}.cls-2{fill:#dbbd82;}</style></defs><title>Sandwich</title><rect class="cls-1" y="0.1" width="891.26" height="891.26"/><path class="cls-1" d="M866.66,216.16a70.08,70.08,0,0,0,24.6-53.3V83.94A83.83,83.83,0,0,0,807.43.1H83.83A83.83,83.83,0,0,0,0,83.94V162.5a70,70,0,0,0,24.43,53.15l.56.48a70,70,0,0,1-.18,106.45l-.21.18A70,70,0,0,0,0,376.06V801.68a89.68,89.68,0,0,0,89.68,89.68h711.9a89.68,89.68,0,0,0,89.68-89.68V376.06a70,70,0,0,0-24.6-53.3,70,70,0,0,1,0-106.6Zm-28.91-33.91a114.58,114.58,0,0,0,0,174.43,25.44,25.44,0,0,1,9,19.38V801.68a45.18,45.18,0,0,1-45.12,45.12H89.68a45.17,45.17,0,0,1-45.12-45.12V376.06a25.44,25.44,0,0,1,8.95-19.38h0l.2-.18A114.55,114.55,0,0,0,83.41,317.4,114.5,114.5,0,0,0,94,269.47a114.41,114.41,0,0,0-40-87.16l-.55-.47a25.46,25.46,0,0,1-8.89-19.34V83.94A39.31,39.31,0,0,1,83.83,44.67h723.6A39.31,39.31,0,0,1,846.7,83.94v78.92A25.48,25.48,0,0,1,837.75,182.25Z"/><path class="cls-2" d="M846.7,801.68V376.06a25.44,25.44,0,0,0-9-19.38,114.58,114.58,0,0,1,0-174.43,25.48,25.48,0,0,0,9-19.39V83.94a39.31,39.31,0,0,0-39.27-39.27H83.83A39.31,39.31,0,0,0,44.56,83.94V162.5a25.46,25.46,0,0,0,8.89,19.34l.55.47a114.41,114.41,0,0,1,40,87.16A114.5,114.5,0,0,1,83.41,317.4a114.55,114.55,0,0,1-29.67,39.08l-.2.18h0a25.44,25.44,0,0,0-8.95,19.38V801.68A45.17,45.17,0,0,0,89.68,846.8h711.9A45.18,45.18,0,0,0,846.7,801.68Z"/></svg>