<svg id="Layer_2" data-name="Layer 2" xmlns="http://www.w3.org/2000/svg" viewBox="0 0 1013.96 1013.96"><title>Sandwich</title><path d="M715,453.59c-1.2-3.84-2.56-7.67-4.08-11.46q-2.58-6.42-5.66-12.48a152.91,152.91,0,0,0-60.78-63.78q-3-1.72-6.14-3.32a153.59,153.59,0,0,0-94.18-15q-6.33,1-12.65,2.57a155.94,155.94,0,0,0-20.45,6.61,153.11,153.11,0,0,0-82.17,77.9q-2.62,5.63-4.77,11.46a153,153,0,0,0-3,97.58c1.22,4.05,2.62,8.09,4.2,12.09l.33.83a154,154,0,0,0,127.16,95.72,151.64,151.64,0,0,0,37.5-.8c4.32-.62,8.65-1.44,13-2.45a156,156,0,0,0,22.24-7A153.7,153.7,0,0,0,715,453.59Zm-19.29,48.07a127.85,127.85,0,1,1-9.17-49.75A126.93,126.93,0,0,1,695.74,501.66Z"/><path d="M827.37,448.42a276.27,276.27,0,0,0-12-66.75q-3.52-11.31-8.06-22.45a280.75,280.75,0,0,0-18.86-37.73A277.94,277.94,0,0,0,426.61,214.91q-9.8,4.83-19.32,10.53-10.74,6.42-20.67,13.63a276.42,276.42,0,0,0-96.73,126.61q-2.24,5.9-4.19,11.89a277.75,277.75,0,0,0-1.57,168.17,160.9,160.9,0,0,1,49.28-2.45A230.76,230.76,0,1,1,493.53,687.46q-9.11-2.3-17.92-5.28a160.57,160.57,0,0,1-1.29,49.31q10.46,3,21.12,5.08a276.77,276.77,0,0,0,175.14-22.21q10.35-5,20.41-10.94l1.38-.81a278.31,278.31,0,0,0,135-254.19Z"/><path d="M886.37,273.18A446.31,446.31,0,0,0,542.23,62.77Q524.79,61.39,507,61.39q-20.06,0-39.66,1.75a443.28,443.28,0,0,0-237.24,94.72q-7.94,6.28-15.55,12.93A445.28,445.28,0,0,0,72.43,408q-4.12,18.15-6.74,36.83A450.32,450.32,0,0,0,61.39,507q0,10.21.46,20.32a125,125,0,0,1,77.9,20.22A373.69,373.69,0,0,1,137.56,507,369.63,369.63,0,1,1,507,876.41a374,374,0,0,1-39.14-2,124.73,124.73,0,0,1,23.26,77.91q6.63.24,13.31.27c.85,0,1.71,0,2.57,0,144.51,0,272.95-68.79,354.36-175.42A444,444,0,0,0,940.13,612q4.47-18.47,7.37-37.52A449.12,449.12,0,0,0,952.57,507,443.42,443.42,0,0,0,886.37,273.18Z"/></svg>