<svg id="Layer_2" data-name="Layer 2" xmlns="http://www.w3.org/2000/svg" viewBox="0 0 1013.96 1013.96"><title>Sandwich</title><path d="M879.8,250.56h0C849.63,140.12,743.49,62.88,621.91,62.88H420.71a315.19,315.19,0,0,0-94.3,14.31,139.45,139.45,0,0,1-7.77,91.05A179.93,179.93,0,0,1,345,166.31,178.08,178.08,0,1,1,319.5,520.66a136.87,136.87,0,0,1,7.33,22.09A160.25,160.25,0,0,1,430,816a162.18,162.18,0,0,1-17.35,15,125.15,125.15,0,0,1,78.55,113.86c90.25-19.81,163.44-85.55,186.34-172.82h0c20-80.22,61.53-154.29,120.74-215.12h0C878.79,474.25,909.44,359.05,879.8,250.56Z"/></svg>