<svg id="Layer_2" data-name="Layer 2" xmlns="http://www.w3.org/2000/svg" viewBox="0 0 1013.96 1013.96"><title>Sandwich</title><path d="M829,249.25A123.79,123.79,0,0,1,952.76,125.46V61.59H324.42a100.52,100.52,0,1,1-201,0H61.5V636.71a157,157,0,1,1,0,157.93V952.85H660.06a142.85,142.85,0,1,1,138.28,0H952.76V373A123.79,123.79,0,0,1,829,249.25ZM329.19,508.17a60.28,60.28,0,1,1,60.28-60.28A60.27,60.27,0,0,1,329.19,508.17Zm100.45,315a53.72,53.72,0,1,1,53.72-53.72A53.73,53.73,0,0,1,429.64,823.12ZM576.7,522.57A169.09,169.09,0,1,1,745.79,353.48,169.1,169.1,0,0,1,576.7,522.57Z"/></svg>