<svg id="Layer_2" data-name="Layer 2" xmlns="http://www.w3.org/2000/svg" viewBox="0 0 1013.96 1013.96"><title>Sandwich</title><path d="M952.76,329.16A89.13,89.13,0,0,0,863.63,240a89.13,89.13,0,1,0-89.12-89.13,89.13,89.13,0,1,0-178.26,0,89.13,89.13,0,1,0-178.25,0,89.13,89.13,0,1,0-178.25,0A89.13,89.13,0,1,0,150.62,240a89.13,89.13,0,0,0,0,178.25,89.13,89.13,0,0,0,0,178.25,89.13,89.13,0,0,0,0,178.25,89.13,89.13,0,1,0,89.13,89.13,89.13,89.13,0,0,0,178.25,0,89.13,89.13,0,0,0,178.25,0,89.13,89.13,0,0,0,178.26,0,89.13,89.13,0,1,0,89.12-89.13,89.13,89.13,0,1,0,0-178.25,89.13,89.13,0,1,0,0-178.25A89.13,89.13,0,0,0,952.76,329.16Z"/></svg>