<svg id="Layer_2" data-name="Layer 2" xmlns="http://www.w3.org/2000/svg" viewBox="0 0 1013.96 1013.96"><title>Sandwich</title><path d="M861.77,646.22v-1.66c-.33-80.67-68-147.53-148.71-146.88a147.35,147.35,0,0,0-40.49,6c-22.38,6.59-37,28.12-35.44,51.4L652,778.91l2.66,39.9q2.19,33,6.3,65.78l3.64,24.84a33,33,0,0,1-29.47,37.67c-26.8,2.63-69.38,5.47-128.13,5.47s-101.33-2.84-128.13-5.47a33,33,0,0,1-29.47-37.67L353,884.65q4.13-32.85,6.32-65.9l2.6-39.26,14.92-224.76A50.28,50.28,0,0,0,340,502.9a147.93,147.93,0,0,0-44.79-5.12c-75.55,2.88-140,68.4-141.7,144-.05,2.21-.06,4.41,0,6.6.24,11.23-14.76,15.21-20,5.27a420,420,0,0,1-48.4-196.38C85.06,224.24,274,61.39,507,61.39S928.9,224.24,928.9,457.26a420.15,420.15,0,0,1-47.09,193.89C876.67,661.05,861.69,657.37,861.77,646.22Z"/></svg>