<svg id="Layer_2" data-name="Layer 2" xmlns="http://www.w3.org/2000/svg" viewBox="0 0 1013.96 1013.96"><title>Sandwich</title><path d="M848.91,62c-50.37.65-123.09,2-204.25,5-16.64.61-33.63,1.28-50.87,2-123.93,5.34-260,14.45-363.36,30-26.46,4-50.77,8.37-72.21,13.24-26.41,6-48.42,12.7-64.65,20.2l7.66,59.2,6.35,49,12.64,97.57,6.27,48.5,10.86,83.83,6.6,51.08,4.15,32a128,128,0,0,1,11.33,10,124.69,124.69,0,0,1,28.4,43.75,162.5,162.5,0,0,1,15.52-18A160.26,160.26,0,1,1,412.63,831.08a125.15,125.15,0,0,1,78.28,107.64Q509,940,526.67,941.05c73.74,4.62,140.43,7.6,185.58,9.35,37,1.44,59.54,2,59.54,2l148.6-891S893.37,61.44,848.91,62Z"/></svg>