<svg id="Layer_2" data-name="Layer 2" xmlns="http://www.w3.org/2000/svg" viewBox="0 0 891.18 891.18"><defs><style>.cls-1{fill:#b11373;}.cls-2{fill:#7d0048;}.cls-3{fill:#ffe4ff;}</style></defs><title>Sandwich</title><rect class="cls-1" width="891.18" height="891.18"/><path class="cls-2" d="M443.87,871.17l-.85,20q-18.74-.09-37.09-1.73V869.37Q424.76,871.1,443.87,871.17Z"/><path class="cls-1" d="M825,211.79A446.31,446.31,0,0,0,480.84,1.38Q463.4,0,445.59,0q-20.05,0-39.66,1.75A443.28,443.28,0,0,0,168.69,96.47q-7.94,6.28-15.55,12.93A445.28,445.28,0,0,0,11,346.6Q6.91,364.75,4.3,383.43A450.32,450.32,0,0,0,0,445.59,444,444,0,0,0,120.92,750.77Q133.25,763.9,146.61,776A443.81,443.81,0,0,0,405.93,889.43q18.35,1.64,37.09,1.73c.85,0,1.71,0,2.57,0,144.51,0,273-68.79,354.36-175.42a444,444,0,0,0,78.79-165.2q4.47-18.46,7.37-37.52a449.12,449.12,0,0,0,5.07-67.45A443.42,443.42,0,0,0,825,211.79Zm35.8,327.85a420,420,0,0,1-23,71.6q-7.4,17.47-16.25,34.12a421.09,421.09,0,0,1-40.61,62.43,429.88,429.88,0,0,1-34.35,38.74A424.27,424.27,0,0,1,445.59,871.18h-1.72q-19.11-.06-37.94-1.8a424.1,424.1,0,0,1-243.8-106.3q-8.94-8-17.48-16.54-4.53-4.53-8.91-9.19A424.11,424.11,0,0,1,20,445.59a429.28,429.28,0,0,1,3.4-54.18q2.42-19.1,6.55-37.84a424.77,424.77,0,0,1,114.7-208.92q12.78-12.78,26.45-24.33,8-6.73,16.19-13A424.18,424.18,0,0,1,405.93,21.81Q425.6,20,445.59,20q17.31,0,34.4,1.36A424.2,424.2,0,0,1,746.53,144.65q10.31,10.31,19.83,21.21A424.1,424.1,0,0,1,871.18,445.59a429.15,429.15,0,0,1-3.72,56.62Q865,521.11,860.78,539.64Z"/><path class="cls-3" d="M837.74,279.94a427,427,0,1,0,33.44,165.65A424.1,424.1,0,0,0,837.74,279.94ZM786,589.38a370.62,370.62,0,1,1,29-143.79A368,368,0,0,1,786,589.38Z"/><path class="cls-2" d="M480.84,1.38l-.85,20Q462.91,20,445.59,20q-20,0-39.66,1.81V1.75Q425.52,0,445.59,0,463.38,0,480.84,1.38Z"/><path class="cls-2" d="M162.13,763.07,146.61,776q-13.35-12.08-25.69-25.21l14.82-13.43q4.37,4.65,8.91,9.19Q153.19,755.07,162.13,763.07Z"/><path class="cls-2" d="M825,211.79l-15.51,12.89a422.68,422.68,0,0,0-43.11-58.82l14.81-13.42A446.73,446.73,0,0,1,825,211.79Z"/><path class="cls-2" d="M30,353.57q-4.14,18.72-6.55,37.84l-19.1-8Q6.91,364.76,11,346.6Z"/><path class="cls-2" d="M840.41,652.33A444.27,444.27,0,0,1,800,715.76l-19.07-8a421.09,421.09,0,0,0,40.61-62.43Z"/><path class="cls-2" d="M187.29,107.27q-8.23,6.32-16.19,13l-18-10.92q7.62-6.65,15.55-12.93Z"/><path class="cls-2" d="M886.11,513q-2.9,19-7.37,37.52l-18-10.92q4.19-18.52,6.68-37.43Z"/><path class="cls-1" d="M616.79,156.09a278.45,278.45,0,0,0-251.58-2.57q-9.78,4.83-19.31,10.53-10.74,6.42-20.68,13.63a276.42,276.42,0,0,0-96.73,126.61q-2.24,5.9-4.18,11.89a277.71,277.71,0,0,0-.21,172.46q3.6,11,8.17,21.88a281.38,281.38,0,0,0,17.58,34.66A277,277,0,0,0,412.22,669.9Q423,673,434,675.18A276.83,276.83,0,0,0,609.18,653q10.35-5,20.42-10.94l1.38-.81a278,278,0,0,0,123-320.94q-3.51-11.31-8.06-22.45A278.88,278.88,0,0,0,616.79,156.09Zm124,164.09a262.18,262.18,0,0,1,10.57,45.71q1.64,11.72,2.21,23.46a262,262,0,0,1-1.77,46.42,267.69,267.69,0,0,1-6,31.73,264.57,264.57,0,0,1-121.26,163c-.3.19-.61.37-.92.55q-10.26,6.08-20.89,11.17A264.46,264.46,0,0,1,438.22,663.3q-7.35-1.42-14.65-3.26c-2.58-.65-5.16-1.34-7.71-2.07a264.54,264.54,0,0,1-155.3-119.19,267.65,267.65,0,0,1-15.51-30.1q-4.81-11-8.6-22.35A265.06,265.06,0,0,1,231,337.77q2.75-10.92,6.37-21.49,2.11-6.13,4.5-12.16a264.61,264.61,0,0,1,89.73-115.7q9.94-7.26,20.65-13.66,9.27-5.53,18.86-10.27A264.56,264.56,0,0,1,553.3,145.24q8.82,2.22,17.41,5A266.11,266.11,0,0,1,732.43,298Q737.16,308.92,740.83,320.18Z"/><path class="cls-3" d="M645.42,188.49a266.39,266.39,0,1,0,70.89,78A264.59,264.59,0,0,0,645.42,188.49ZM716.7,370.74a231.24,231.24,0,1,1-30.46-86.28A229.71,229.71,0,0,1,716.7,370.74Z"/><path class="cls-2" d="M365.21,153.52l5.94,11q-9.58,4.72-18.86,10.27-10.69,6.39-20.65,13.66l-6.42-10.74q9.93-7.2,20.68-13.63Q355.43,158.36,365.21,153.52Z"/><path class="cls-2" d="M438.22,663.3,434,675.18q-11-2.19-21.82-5.28L415.86,658c2.55.73,5.13,1.42,7.71,2.07Q430.88,661.89,438.22,663.3Z"/><path class="cls-2" d="M616.79,156.09,612.6,168a264.48,264.48,0,0,0-41.89-17.7l3.63-11.92A277.61,277.61,0,0,1,616.79,156.09Z"/><path class="cls-2" d="M236.45,486.33q3.78,11.34,8.6,22.35l-12.78,1.84q-4.58-10.83-8.17-21.88Z"/><path class="cls-2" d="M766,387a276,276,0,0,1-1.37,46.91l-12.76,1.83a262,262,0,0,0,1.77-46.42Z"/><path class="cls-2" d="M241.91,304.12q-2.39,6-4.5,12.16l-13.1-.1q2-6,4.18-11.89Z"/><path class="cls-2" d="M745.88,297.83q4.54,11.12,8.06,22.45l-13.11-.1q-3.69-11.26-8.4-22.18Z"/><path class="cls-1" d="M630.47,529.38A154,154,0,0,0,653.64,392.2c-1.2-3.84-2.56-7.67-4.09-11.46q-2.56-6.42-5.65-12.48a153,153,0,0,0-60.79-63.78c-2-1.16-4.06-2.26-6.13-3.32a153.6,153.6,0,0,0-94.18-15q-6.35,1-12.66,2.57a154.94,154.94,0,0,0-20.45,6.61,153.16,153.16,0,0,0-82.17,77.89q-2.61,5.64-4.77,11.47a153.08,153.08,0,0,0-3,97.58c1.22,4.05,2.63,8.09,4.21,12.09.1.28.21.55.32.83a153.69,153.69,0,0,0,164.66,94.92q6.5-.93,13-2.46a155.22,155.22,0,0,0,22.25-7A152.93,152.93,0,0,0,630.47,529.38ZM530.11,582.94a144.09,144.09,0,0,1-25.88,1.82q-6.54-.12-13-.82a145,145,0,0,1-25.2-5,148.71,148.71,0,0,1-16.82-6,146.25,146.25,0,0,1-78.54-80.33c-.08-.18-.15-.37-.22-.55q-2.43-6.12-4.3-12.38A146.25,146.25,0,0,1,368.88,388q1.41-3.9,3.05-7.72c.58-1.36,1.18-2.71,1.8-4a146.26,146.26,0,0,1,78.53-74.51A149.71,149.71,0,0,1,470,295.84c4.28-1.12,8.61-2,13-2.76a144.65,144.65,0,0,1,26.58-1.94,146.47,146.47,0,0,1,55,11.83c3.83,1.63,7.55,3.41,11.19,5.34,2.12,1.12,4.2,2.29,6.26,3.51a146.48,146.48,0,0,1,55.43,59q3.1,6.06,5.67,12.46,2.22,5.55,4,11.19a146.24,146.24,0,0,1-5.24,101.16q-2,4.62-4.24,9.07a146.3,146.3,0,0,1-76.09,69.47A148.06,148.06,0,0,1,543,580.27Q536.59,581.91,530.11,582.94Z"/><path class="cls-3" d="M610.29,542.22a147.31,147.31,0,1,0-48.73,32A146.47,146.47,0,0,0,610.29,542.22Zm-105.7,23.17a127.8,127.8,0,1,1,49.76-9.17A127,127,0,0,1,504.59,565.39Z"/><path class="cls-2" d="M653.64,392.2l-6.51,2.29q-1.75-5.64-4-11.19-2.56-6.39-5.67-12.46l6.42-2.58q3.08,6.06,5.65,12.48C651.08,384.53,652.44,388.36,653.64,392.2Z"/><path class="cls-2" d="M368.88,388l-6.13-3.31q2.16-5.84,4.77-11.47l6.21,3c-.62,1.33-1.22,2.68-1.8,4Q370.29,384.09,368.88,388Z"/><path class="cls-2" d="M630.47,529.38l-6.12-3.31a145.51,145.51,0,0,0,13.3-21.35l6.19,3A153.69,153.69,0,0,1,630.47,529.38Z"/><path class="cls-2" d="M483,293.08c-4.35.72-8.68,1.64-13,2.76l.1-7.14q6.32-1.56,12.66-2.57Z"/><path class="cls-2" d="M491.42,590.89a152.33,152.33,0,0,1-25.5-4.81L466,579a145,145,0,0,0,25.2,5Z"/><path class="cls-2" d="M582.05,311.82c-2.06-1.22-4.14-2.39-6.26-3.51l1.19-7.15c2.07,1.06,4.11,2.16,6.13,3.32Z"/><path class="cls-2" d="M541.88,587.63q-6.46,1.53-13,2.46l1.19-7.15q6.48-1,12.84-2.67Z"/><polygon class="cls-2" points="120.92 750.77 76.16 789.96 106.78 813.86 146.61 775.98 120.92 750.77"/><polyline class="cls-2" points="11.04 346.6 -0.71 341.87 -0.71 384.11 4.3 383.43 11.04 347.83"/><polygon class="cls-2" points="168.69 96.47 142.22 79.8 133.78 99.77 153.14 109.4 168.69 96.47"/><polygon class="cls-2" points="405.93 1.75 405.93 -2.33 480.84 -2.33 480.84 1.38 405.93 1.75"/><polygon class="cls-2" points="781.17 152.44 798.94 137.13 831.56 206.36 824.98 211.79 781.17 152.44"/><polygon class="cls-2" points="886.11 513.04 891.18 516.02 891.18 557.64 878.74 550.56 886.11 513.04"/><polygon class="cls-2" points="840.41 652.33 871.18 663.11 810.64 721.05 799.95 715.76 840.41 652.33"/><polygon class="cls-2" points="412.22 669.9 404.63 694.05 427.69 700.24 434.04 675.18 412.22 669.9"/><polygon class="cls-2" points="465.92 586.08 465.92 604.33 491.42 605.46 491.42 590.89 465.92 586.08"/><polygon class="cls-2" points="528.92 590.09 525.56 609.96 541.31 600.02 541.88 587.63 528.92 590.09"/><polygon class="cls-2" points="643.84 507.74 658.88 514.33 640.31 535.34 630.47 529.38 643.84 507.74"/><polygon class="cls-2" points="765.97 387.03 792.19 381.38 785.16 431.64 764.6 433.94 765.97 387.03"/><polygon class="cls-2" points="753.94 320.28 776.16 320.28 765.05 297.83 745.88 297.83 753.94 320.28"/><polygon class="cls-2" points="643.9 368.26 664.5 360.21 670.69 385.52 653.64 392.2 643.9 368.26"/><polygon class="cls-2" points="583.12 304.48 586.03 284.22 579.45 284.22 576.98 301.16 583.12 304.48"/><polygon class="cls-2" points="482.8 286.13 482.8 269.36 470.04 274.14 470.14 288.7 482.8 286.13"/><polygon class="cls-2" points="367.52 373.2 346.97 362.74 345.28 375.67 362.75 384.67 367.52 373.2"/><polygon class="cls-2" points="228.5 304.29 202.97 304.12 202.97 316.29 224.31 316.18 228.5 304.29"/><polygon class="cls-2" points="224.1 488.64 192.28 494.92 198.47 516.3 232.27 510.52 224.1 488.64"/><polygon class="cls-2" points="365.21 153.52 353.18 129.02 314.06 156.58 325.22 177.68 365.21 153.52"/><polygon class="cls-2" points="574.34 138.32 581.5 119.74 622.31 139.71 616.78 156.09 574.34 138.32"/><path class="cls-3" d="M443.38,21.81C210.5,21.81,21.7,210.57,21.7,443.43S210.5,865.05,443.38,865.05,865.07,676.28,865.07,443.43,676.27,21.81,443.38,21.81Zm0,774.45c-194.89,0-352.88-158-352.88-352.83S248.49,90.6,443.38,90.6s352.89,158,352.89,352.83S638.28,796.26,443.38,796.26Z"/><path class="cls-3" d="M489.08,152.94c-137.93,0-249.73,111.79-249.73,249.69s111.8,249.7,249.73,249.7,249.73-111.79,249.73-249.7S627,152.94,489.08,152.94Zm0,458.65c-115.42,0-209-93.55-209-209s93.57-208.95,209-208.95,209,93.55,209,209S604.5,611.59,489.08,611.59Z"/><path class="cls-3" d="M506.91,299a139,139,0,1,0,139,139A139,139,0,0,0,506.91,299Zm0,255.24A116.29,116.29,0,1,1,623.21,438,116.29,116.29,0,0,1,506.91,554.24Z"/></svg>