<svg id="Layer_2" data-name="Layer 2" xmlns="http://www.w3.org/2000/svg" viewBox="0 0 1013.96 1013.96"><title>Sandwich</title><path d="M952.86,125.46V61.59H324.53a100.52,100.52,0,1,1-201,0H61.61V526a124.82,124.82,0,0,1,98.06,36.26l.75.78a158.17,158.17,0,0,1,75,.31A160.33,160.33,0,0,1,473.09,737.66a53.74,53.74,0,0,1-51.18,84.89q-4.38,3.81-9,7.26a125.16,125.16,0,0,1,78.4,123H660.17a142.86,142.86,0,1,1,138.27,0H952.86V373a123.79,123.79,0,0,1,0-247.58ZM329.3,508.17a60.28,60.28,0,1,1,60.28-60.28A60.28,60.28,0,0,1,329.3,508.17Zm247.5,14.4A169.09,169.09,0,1,1,745.89,353.48,169.1,169.1,0,0,1,576.8,522.57Z"/></svg>