<svg id="Layer_2" data-name="Layer 2" xmlns="http://www.w3.org/2000/svg" viewBox="0 0 1013.96 1013.96"><title>Sandwich</title><path d="M804.07,61.39a148.51,148.51,0,0,0-148.5,148.5v50.55h-.81a148.49,148.49,0,0,0-257.1-85.86A178.12,178.12,0,0,1,320,521.14a138.85,138.85,0,0,1,7.33,22.09A160.25,160.25,0,0,1,430.45,816.47a161.26,161.26,0,0,1-17.36,15.06,125.12,125.12,0,0,1,78.49,120.25,150.64,150.64,0,0,0,15.4.79,148.5,148.5,0,0,0,148.5-148.5V749.44H656a148.5,148.5,0,0,0,296.62-10.55v-529A148.51,148.51,0,0,0,804.07,61.39Z"/></svg>