<svg id="Layer_2" data-name="Layer 2" xmlns="http://www.w3.org/2000/svg" viewBox="0 0 1013.96 1013.96"><title>Sandwich</title><path d="M804.07,61.39a148.51,148.51,0,0,0-148.5,148.5v50.55h-.81a148.5,148.5,0,0,0-295.56,0h-.81V209.89a148.5,148.5,0,0,0-297,0V527.81a125.15,125.15,0,0,1,126.26,80,160.25,160.25,0,1,1,224.8,223.71,125.12,125.12,0,0,1,78.49,120.18,151.73,151.73,0,0,0,16,.86,148.5,148.5,0,0,0,148.5-148.5V749.44H656a148.5,148.5,0,0,0,296.62-10.55v-529A148.51,148.51,0,0,0,804.07,61.39Z"/></svg>