<svg id="Layer_2" data-name="Layer 2" xmlns="http://www.w3.org/2000/svg" viewBox="0 0 1013.96 1013.96"><title>Sandwich</title><path d="M920.39,61.44l-148.6,891s-22.52-.6-59.54-2c-45.15-1.75-111.84-4.73-185.58-9.35-16.72-1-33.79-2.17-51.06-3.39-98-6.92-202.27-16.71-281.7-30.22l-11.76-90.86-6.74-51.93L162.92,668l-6.58-50.8L144,521.64l-6.6-51.08-10.86-83.83-6.27-48.5-12.64-97.57-6.35-49-7.66-59.2c16.23-7.5,38.24-14.2,64.65-20.2C179.66,107.37,204,103,230.43,99,333.82,83.45,469.86,74.34,593.79,69c17.24-.74,34.23-1.41,50.87-2,81.16-2.94,153.88-4.32,204.25-5C893.37,61.44,920.39,61.44,920.39,61.44Z"/></svg>