<svg id="Layer_2" data-name="Layer 2" xmlns="http://www.w3.org/2000/svg" viewBox="0 0 1013.96 1013.96"><title>Sandwich</title><path d="M952.86,329.16A89.12,89.12,0,0,0,863.74,240a89.13,89.13,0,1,0-89.13-89.13,89.13,89.13,0,1,0-178.25,0,89.13,89.13,0,1,0-178.25,0,89.13,89.13,0,1,0-178.25,0A89.13,89.13,0,1,0,150.73,240a89.13,89.13,0,0,0,0,178.25A89.23,89.23,0,0,0,63.89,527.56a125.16,125.16,0,0,1,124.19,80.17,160.3,160.3,0,1,1,242.21,208.7,163.36,163.36,0,0,1-17.36,15.06,125.14,125.14,0,0,1,78.52,120.16,89.22,89.22,0,0,0,104.91-87.73,89.13,89.13,0,0,0,178.25,0,89.13,89.13,0,1,0,89.13-89.13,89.13,89.13,0,0,0,0-178.25,89.13,89.13,0,0,0,0-178.25A89.12,89.12,0,0,0,952.86,329.16Z"/></svg>