<svg id="Layer_2" data-name="Layer 2" xmlns="http://www.w3.org/2000/svg" viewBox="0 0 891.18 891.18"><defs><style>.cls-1{fill:#a32421;}.cls-2{fill:#c2372f;}</style></defs><title>Sandwich</title><rect class="cls-1" y="0.3" width="891.26" height="891.26"/><path class="cls-2" d="M827.05,607a412.13,412.13,0,0,0,24.11-77.66,418.28,418.28,0,0,0,0-166.91,411.55,411.55,0,0,0-62.27-148,415.12,415.12,0,0,0-182.15-150,411.81,411.81,0,0,0-77.65-24.11,418.33,418.33,0,0,0-166.92,0,411.75,411.75,0,0,0-148,62.27,415.1,415.1,0,0,0-150,182.15A411.4,411.4,0,0,0,40.1,362.47a418.28,418.28,0,0,0,0,166.91,411.76,411.76,0,0,0,62.26,148,415.2,415.2,0,0,0,182.16,150,411,411,0,0,0,77.65,24.1,418.33,418.33,0,0,0,166.92,0,411.49,411.49,0,0,0,148-62.26A415.32,415.32,0,0,0,827.05,607Z"/><path class="cls-1" d="M445.63,32a417.27,417.27,0,0,1,83.46,8.41,411.75,411.75,0,0,1,148,62.27,415.32,415.32,0,0,1,150,182.15,412.13,412.13,0,0,1,24.11,77.66,418.28,418.28,0,0,1,0,166.91,411.55,411.55,0,0,1-62.27,148,415.12,415.12,0,0,1-182.15,150,411,411,0,0,1-77.65,24.1,418.33,418.33,0,0,1-166.92,0,411.49,411.49,0,0,1-148-62.26A415.1,415.1,0,0,1,64.21,607,411.4,411.4,0,0,1,40.1,529.38a418.28,418.28,0,0,1,0-166.91,411.76,411.76,0,0,1,62.26-148,415.2,415.2,0,0,1,182.16-150,411.81,411.81,0,0,1,77.65-24.11A417.2,417.2,0,0,1,445.63,32m0-31.68C199.52.3,0,199.81,0,445.92S199.52,891.55,445.63,891.55,891.26,692,891.26,445.92,691.74.3,445.63.3Z"/><path class="cls-1" d="M417.65,387.75V162.81a29.92,29.92,0,0,0-35.81-29.38l-.5.1a317,317,0,0,0-114,48,320.67,320.67,0,0,0-86.16,86.16,317,317,0,0,0-48,114c0,.12-.05.24-.08.36a29.84,29.84,0,0,0,29.29,35.71H387.7A30,30,0,0,0,417.65,387.75Z"/><path class="cls-1" d="M504.06,417.7H728.81A29.84,29.84,0,0,0,758.1,382c0-.12-.05-.24-.08-.36a317,317,0,0,0-48-114A319.92,319.92,0,0,0,569.74,152.1a317.61,317.61,0,0,0-59.82-18.57l-.35-.07a29.63,29.63,0,0,0-35.47,29.09v225.2A30,30,0,0,0,504.06,417.7Z"/><path class="cls-1" d="M474.1,504.1V729.3a29.63,29.63,0,0,0,35.47,29.09l.35-.07a317,317,0,0,0,114-48A319.82,319.82,0,0,0,739.45,570,316.25,316.25,0,0,0,758,510.21c0-.11.05-.23.08-.35a29.84,29.84,0,0,0-29.29-35.71H504.06A30,30,0,0,0,474.1,504.1Z"/><path class="cls-1" d="M387.7,474.15H162.45a29.84,29.84,0,0,0-29.29,35.71c0,.12.05.24.08.35a317,317,0,0,0,48,114A319.92,319.92,0,0,0,321.52,739.75a317.61,317.61,0,0,0,59.82,18.57l.5.1A29.92,29.92,0,0,0,417.65,729V504.1A30,30,0,0,0,387.7,474.15Z"/><ellipse class="cls-2" cx="616.21" cy="221.38" rx="9.98" ry="16.96" transform="translate(-28.13 337.76) rotate(-30)"/><ellipse class="cls-2" cx="539.95" cy="352.59" rx="9.98" ry="16.96" transform="matrix(0.14, -0.99, 0.99, 0.14, 117.59, 839.91)"/><ellipse class="cls-2" cx="304.76" cy="519.45" rx="23.68" ry="11.31" transform="translate(-255.79 299.25) rotate(-38.15)"/><ellipse class="cls-2" cx="215.64" cy="616.5" rx="9.98" ry="16.96" transform="translate(-424.36 746.79) rotate(-82.23)"/><ellipse class="cls-2" cx="316.15" cy="667.01" rx="9.98" ry="16.96" transform="translate(-387.48 890.06) rotate(-82.23)"/><ellipse class="cls-2" cx="701.37" cy="368.43" rx="16.28" ry="27.66" transform="translate(-55.1 603.86) rotate(-45)"/><ellipse class="cls-2" cx="634.53" cy="524.9" rx="12.63" ry="21.45" transform="translate(28.65 1082.62) rotate(-82.23)"/><ellipse class="cls-2" cx="602.34" cy="656.61" rx="21.45" ry="12.63" transform="translate(-202.39 1039.17) rotate(-72.89)"/><ellipse class="cls-2" cx="331" cy="221.38" rx="16.28" ry="27.66" transform="translate(-59.59 298.89) rotate(-45)"/><ellipse class="cls-2" cx="225.54" cy="374.38" rx="12.63" ry="21.45" transform="translate(-198.62 479.82) rotate(-72.89)"/></svg>