<svg id="Layer_2" data-name="Layer 2" xmlns="http://www.w3.org/2000/svg" viewBox="0 0 891.18 891.18"><defs><style>.cls-1{fill:#9e8d36;}.cls-2{fill:#d4cd92;}.cls-3{fill:#cbbd82;}</style></defs><title>Sandwich</title><rect class="cls-1" y="0.05" width="891" height="891"/><path class="cls-1" d="M742.68,40a108.5,108.5,0,0,1,108.5,108.5v529a108.5,108.5,0,0,1-217,0v-529A108.5,108.5,0,0,1,742.68,40m0-40a148.5,148.5,0,0,0-148.5,148.5v529a148.5,148.5,0,0,0,297,0v-529A148.51,148.51,0,0,0,742.68,0Z"/><path class="cls-2" d="M742.68,786a108.5,108.5,0,0,0,108.5-108.5v-529a108.5,108.5,0,0,0-217,0v529A108.5,108.5,0,0,0,742.68,786Z"/><rect class="cls-3" x="687.18" y="110.23" width="111" height="605.54" rx="55.5"/><path class="cls-2" d="M783.68,694a47,47,0,1,1,47.25-47A47.18,47.18,0,0,1,783.68,694Z"/><path class="cls-3" d="M783.68,610a37,37,0,1,1-37.26,37,37.12,37.12,0,0,1,37.26-37m0-20a57,57,0,1,0,57.25,57,57.19,57.19,0,0,0-57.25-57Z"/><path class="cls-2" d="M783.68,590a47,47,0,1,1,47.25-47A47.18,47.18,0,0,1,783.68,590Z"/><path class="cls-3" d="M783.68,506a37,37,0,1,1-37.26,37,37.12,37.12,0,0,1,37.26-37m0-20a57,57,0,1,0,57.25,57,57.19,57.19,0,0,0-57.25-57Z"/><path class="cls-2" d="M783.68,278a47,47,0,1,1,47.25-47A47.18,47.18,0,0,1,783.68,278Z"/><path class="cls-3" d="M783.68,194a37,37,0,1,1-37.26,37,37.12,37.12,0,0,1,37.26-37m0-20a57,57,0,1,0,57.25,57,57.19,57.19,0,0,0-57.25-57Z"/><path class="cls-2" d="M783.68,382a47,47,0,1,1,47.25-47A47.18,47.18,0,0,1,783.68,382Z"/><path class="cls-3" d="M783.68,298a37,37,0,1,1-37.26,37,37.12,37.12,0,0,1,37.26-37m0-20a57,57,0,1,0,57.25,57,57.19,57.19,0,0,0-57.25-57Z"/><path class="cls-2" d="M783.68,486a47,47,0,1,1,47.25-47A47.18,47.18,0,0,1,783.68,486Z"/><path class="cls-3" d="M783.68,402a37,37,0,1,1-37.26,37,37.12,37.12,0,0,1,37.26-37m0-20a57,57,0,1,0,57.25,57,57.19,57.19,0,0,0-57.25-57Z"/><path class="cls-2" d="M701.68,642a47,47,0,1,1,47.25-47A47.18,47.18,0,0,1,701.68,642Z"/><path class="cls-3" d="M701.68,558a37,37,0,1,1-37.26,37,37.12,37.12,0,0,1,37.26-37m0-20a57,57,0,1,0,57.25,57,57.19,57.19,0,0,0-57.25-57Z"/><path class="cls-2" d="M701.68,538a47,47,0,1,1,47.25-47A47.18,47.18,0,0,1,701.68,538Z"/><path class="cls-3" d="M701.68,454a37,37,0,1,1-37.26,37,37.12,37.12,0,0,1,37.26-37m0-20a57,57,0,1,0,57.25,57,57.19,57.19,0,0,0-57.25-57Z"/><path class="cls-2" d="M701.68,226a47,47,0,1,1,47.25-47A47.18,47.18,0,0,1,701.68,226Z"/><path class="cls-3" d="M701.68,142a37,37,0,1,1-37.26,37,37.12,37.12,0,0,1,37.26-37m0-20a57,57,0,1,0,57.25,57,57.19,57.19,0,0,0-57.25-57Z"/><path class="cls-2" d="M701.68,330a47,47,0,1,1,47.25-47A47.18,47.18,0,0,1,701.68,330Z"/><path class="cls-3" d="M701.68,246a37,37,0,1,1-37.26,37,37.12,37.12,0,0,1,37.26-37m0-20a57,57,0,1,0,57.25,57,57.19,57.19,0,0,0-57.25-57Z"/><path class="cls-2" d="M701.68,434a47,47,0,1,1,47.25-47A47.18,47.18,0,0,1,701.68,434Z"/><path class="cls-3" d="M701.68,350a37,37,0,1,1-37.26,37,37.12,37.12,0,0,1,37.26-37m0-20a57,57,0,1,0,57.25,57,57.19,57.19,0,0,0-57.25-57Z"/><path class="cls-1" d="M148.5,40A108.5,108.5,0,0,1,257,148.5v529a108.5,108.5,0,0,1-217,0v-529A108.5,108.5,0,0,1,148.5,40m0-40A148.51,148.51,0,0,0,0,148.5v529a148.5,148.5,0,0,0,297,0v-529A148.51,148.51,0,0,0,148.5,0Z"/><path class="cls-2" d="M148.5,786A108.5,108.5,0,0,0,257,677.5v-529a108.5,108.5,0,0,0-217,0v529A108.5,108.5,0,0,0,148.5,786Z"/><rect class="cls-3" x="93" y="110.23" width="111" height="605.54" rx="55.5"/><path class="cls-2" d="M189.5,694a47,47,0,1,1,47.26-47A47.18,47.18,0,0,1,189.5,694Z"/><path class="cls-3" d="M189.5,610a37,37,0,1,1-37.26,37,37.12,37.12,0,0,1,37.26-37m0-20a57,57,0,1,0,57.26,57,57.19,57.19,0,0,0-57.26-57Z"/><path class="cls-2" d="M189.5,590a47,47,0,1,1,47.26-47A47.18,47.18,0,0,1,189.5,590Z"/><path class="cls-3" d="M189.5,506a37,37,0,1,1-37.26,37,37.12,37.12,0,0,1,37.26-37m0-20a57,57,0,1,0,57.26,57,57.19,57.19,0,0,0-57.26-57Z"/><path class="cls-2" d="M189.5,278a47,47,0,1,1,47.26-47A47.18,47.18,0,0,1,189.5,278Z"/><path class="cls-3" d="M189.5,194a37,37,0,1,1-37.26,37,37.12,37.12,0,0,1,37.26-37m0-20a57,57,0,1,0,57.26,57,57.19,57.19,0,0,0-57.26-57Z"/><path class="cls-2" d="M189.5,382a47,47,0,1,1,47.26-47A47.18,47.18,0,0,1,189.5,382Z"/><path class="cls-3" d="M189.5,298a37,37,0,1,1-37.26,37,37.12,37.12,0,0,1,37.26-37m0-20a57,57,0,1,0,57.26,57,57.19,57.19,0,0,0-57.26-57Z"/><path class="cls-2" d="M189.5,486a47,47,0,1,1,47.26-47A47.18,47.18,0,0,1,189.5,486Z"/><path class="cls-3" d="M189.5,402a37,37,0,1,1-37.26,37,37.12,37.12,0,0,1,37.26-37m0-20a57,57,0,1,0,57.26,57,57.19,57.19,0,0,0-57.26-57Z"/><path class="cls-2" d="M107.5,642a47,47,0,1,1,47.26-47A47.18,47.18,0,0,1,107.5,642Z"/><path class="cls-3" d="M107.5,558a37,37,0,1,1-37.26,37,37.12,37.12,0,0,1,37.26-37m0-20a57,57,0,1,0,57.26,57,57.19,57.19,0,0,0-57.26-57Z"/><path class="cls-2" d="M107.5,538a47,47,0,1,1,47.26-47A47.18,47.18,0,0,1,107.5,538Z"/><path class="cls-3" d="M107.5,454a37,37,0,1,1-37.26,37,37.12,37.12,0,0,1,37.26-37m0-20a57,57,0,1,0,57.26,57,57.19,57.19,0,0,0-57.26-57Z"/><path class="cls-2" d="M107.5,226a47,47,0,1,1,47.26-47A47.18,47.18,0,0,1,107.5,226Z"/><path class="cls-3" d="M107.5,142a37,37,0,1,1-37.26,37,37.12,37.12,0,0,1,37.26-37m0-20a57,57,0,1,0,57.26,57,57.19,57.19,0,0,0-57.26-57Z"/><path class="cls-2" d="M107.5,330a47,47,0,1,1,47.26-47A47.18,47.18,0,0,1,107.5,330Z"/><path class="cls-3" d="M107.5,246a37,37,0,1,1-37.26,37,37.12,37.12,0,0,1,37.26-37m0-20a57,57,0,1,0,57.26,57,57.19,57.19,0,0,0-57.26-57Z"/><path class="cls-2" d="M107.5,434a47,47,0,1,1,47.26-47A47.18,47.18,0,0,1,107.5,434Z"/><path class="cls-3" d="M107.5,350a37,37,0,1,1-37.26,37,37.12,37.12,0,0,1,37.26-37m0-20a57,57,0,1,0,57.26,57,57.19,57.19,0,0,0-57.26-57Z"/><path class="cls-1" d="M445.59,105.18a108.5,108.5,0,0,1,108.5,108.5v529a108.5,108.5,0,0,1-217,0v-529a108.5,108.5,0,0,1,108.5-108.5m0-40a148.5,148.5,0,0,0-148.5,148.5v529a148.5,148.5,0,0,0,297,0v-529a148.5,148.5,0,0,0-148.5-148.5Z"/><path class="cls-2" d="M445.59,851.18a108.5,108.5,0,0,0,108.5-108.5v-529a108.5,108.5,0,0,0-217,0v529a108.5,108.5,0,0,0,108.5,108.5Z"/><rect class="cls-3" x="390.09" y="175.41" width="111" height="605.54" rx="55.5"/><ellipse class="cls-2" cx="486.59" cy="712.18" rx="47.26" ry="46.98"/><path class="cls-3" d="M486.59,675.2a37,37,0,1,1-37.26,37,37.11,37.11,0,0,1,37.26-37m0-20a57,57,0,1,0,57.25,57,57.19,57.19,0,0,0-57.25-57Z"/><ellipse class="cls-2" cx="486.59" cy="608.18" rx="47.26" ry="46.98"/><path class="cls-3" d="M486.59,571.2a37,37,0,1,1-37.26,37,37.11,37.11,0,0,1,37.26-37m0-20a57,57,0,1,0,57.25,57,57.19,57.19,0,0,0-57.25-57Z"/><ellipse class="cls-2" cx="486.59" cy="296.18" rx="47.26" ry="46.98"/><path class="cls-3" d="M486.59,259.2a37,37,0,1,1-37.26,37,37.11,37.11,0,0,1,37.26-37m0-20a57,57,0,1,0,57.25,57,57.19,57.19,0,0,0-57.25-57Z"/><ellipse class="cls-2" cx="486.59" cy="400.18" rx="47.26" ry="46.98"/><path class="cls-3" d="M486.59,363.2a37,37,0,1,1-37.26,37,37.11,37.11,0,0,1,37.26-37m0-20a57,57,0,1,0,57.25,57,57.19,57.19,0,0,0-57.25-57Z"/><ellipse class="cls-2" cx="486.59" cy="504.18" rx="47.26" ry="46.98"/><path class="cls-3" d="M486.59,467.2a37,37,0,1,1-37.26,37,37.11,37.11,0,0,1,37.26-37m0-20a57,57,0,1,0,57.25,57,57.19,57.19,0,0,0-57.25-57Z"/><ellipse class="cls-2" cx="404.59" cy="660.18" rx="47.26" ry="46.98"/><path class="cls-3" d="M404.59,623.2a37,37,0,1,1-37.26,37,37.11,37.11,0,0,1,37.26-37m0-20a57,57,0,1,0,57.25,57,57.19,57.19,0,0,0-57.25-57Z"/><ellipse class="cls-2" cx="404.59" cy="556.18" rx="47.26" ry="46.98"/><path class="cls-3" d="M404.59,519.2a37,37,0,1,1-37.26,37,37.11,37.11,0,0,1,37.26-37m0-20a57,57,0,1,0,57.25,57,57.19,57.19,0,0,0-57.25-57Z"/><ellipse class="cls-2" cx="404.59" cy="244.18" rx="47.26" ry="46.98"/><path class="cls-3" d="M404.59,207.2a37,37,0,1,1-37.26,37,37.11,37.11,0,0,1,37.26-37m0-20a57,57,0,1,0,57.25,57,57.19,57.19,0,0,0-57.25-57Z"/><ellipse class="cls-2" cx="404.59" cy="348.18" rx="47.26" ry="46.98"/><path class="cls-3" d="M404.59,311.2a37,37,0,1,1-37.26,37,37.11,37.11,0,0,1,37.26-37m0-20a57,57,0,1,0,57.25,57,57.19,57.19,0,0,0-57.25-57Z"/><ellipse class="cls-2" cx="404.59" cy="452.18" rx="47.26" ry="46.98"/><path class="cls-3" d="M404.59,415.2a37,37,0,1,1-37.26,37,37.11,37.11,0,0,1,37.26-37m0-20a57,57,0,1,0,57.25,57,57.19,57.19,0,0,0-57.25-57Z"/></svg>