<svg id="Layer_2" data-name="Layer 2" xmlns="http://www.w3.org/2000/svg" viewBox="0 0 1013.96 1013.96"><title>Sandwich</title><path d="M848.91,62c-50.37.65-123.09,2-204.25,5-16.64.61-33.63,1.28-50.87,2-87.65,3.78-181.34,9.44-265.27,17.94a139.49,139.49,0,0,1-9.88,81.3A179.93,179.93,0,0,1,345,166.31,178.08,178.08,0,1,1,319.5,520.66a136.87,136.87,0,0,1,7.33,22.09A160.25,160.25,0,0,1,430,816a163.25,163.25,0,0,1-17.36,15,125.15,125.15,0,0,1,78.28,107.67Q509,940,526.67,941.05c73.74,4.62,140.43,7.6,185.58,9.35,37,1.44,59.54,2,59.54,2l148.6-891S893.37,61.44,848.91,62Z"/></svg>