<svg id="Layer_2" data-name="Layer 2" xmlns="http://www.w3.org/2000/svg" viewBox="0 0 1013.96 1013.96"><title>Sandwich</title><path d="M507,61.39c-63.29,0-123.32,12-177.2,34.19a140.7,140.7,0,0,1,.92,16,138.39,138.39,0,0,1-12.06,56.69A179.93,179.93,0,0,1,345,166.33,178.08,178.08,0,0,1,523.05,344.41c0,90.94-68.18,166-156.22,176.74a50.16,50.16,0,0,1,10.05,33A160.32,160.32,0,0,1,430,816a162.23,162.23,0,0,1-17.36,15.06A125.11,125.11,0,0,1,491.07,952.5q7.74.07,15.91.07c58.75,0,101.33-2.84,128.13-5.47a33,33,0,0,0,29.47-37.67l-3.64-24.84q-4.11-32.79-6.3-65.78L652,778.91,637.13,555.05c-1.55-23.28,13.06-44.81,35.44-51.4a147.35,147.35,0,0,1,40.49-6c80.66-.65,148.38,66.21,148.71,146.88v1.66c-.08,11.15,14.9,14.83,20,4.93A420.15,420.15,0,0,0,928.9,457.26C928.9,224.24,740,61.39,507,61.39Z"/></svg>