<svg id="Layer_2" data-name="Layer 2" xmlns="http://www.w3.org/2000/svg" viewBox="0 0 1013.96 1013.96"><title>Sandwich</title><path d="M953,329.16A89.12,89.12,0,0,0,863.85,240a89.13,89.13,0,1,0-89.13-89.13,89.13,89.13,0,1,0-178.25,0,89.13,89.13,0,1,0-178.25,0,89.14,89.14,0,0,0-89.13-89.13c-2.36,0-4.7.1-7,.28a139.42,139.42,0,0,1-2.8,106.78,180.3,180.3,0,0,1,26.35-1.94,178.27,178.27,0,1,1-25.48,354.72,138.89,138.89,0,0,1,7.19,21.51,160.29,160.29,0,0,1,103.05,273.3A162.38,162.38,0,0,1,413,831.49a125.17,125.17,0,0,1,78.53,120.16,89.22,89.22,0,0,0,104.91-87.73,89.13,89.13,0,0,0,178.25,0,89.13,89.13,0,1,0,89.13-89.13,89.13,89.13,0,0,0,0-178.25,89.13,89.13,0,0,0,0-178.25A89.12,89.12,0,0,0,953,329.16Z"/></svg>