<svg id="Layer_2" data-name="Layer 2" xmlns="http://www.w3.org/2000/svg" viewBox="0 0 887.22 888.21"><defs><style>.cls-1{fill:#b47355;}.cls-2{fill:#f4d8c2;}.cls-3{fill:#a6372e;}</style></defs><title>Sandwich</title><rect class="cls-1" width="889.2" height="889.2"/><path class="cls-2" d="M372.93,874.1h0c-166.26,0-301-126.38-301-282.28V284.33c0-149.24,129-270.23,288.19-270.23H554.89c117.72,0,220.48,74.79,249.7,181.72h0c28.7,105.05-1,216.59-79,296.68h0c-57.34,58.91-97.59,130.62-116.91,208.29h0C582,802.56,484.7,874.1,372.93,874.1Z"/><path class="cls-2" d="M372.93,874.1h0c-166.26,0-301-126.38-301-282.28V284.33c0-149.24,129-270.23,288.19-270.23H554.89c117.72,0,220.48,74.79,249.7,181.72h0c28.7,105.05-1,216.59-79,296.68h0c-57.34,58.91-97.59,130.62-116.91,208.29h0C582,802.56,484.7,874.1,372.93,874.1Z"/><path class="cls-1" d="M558.54,25a256.74,256.74,0,0,1,79.6,12.56,247.1,247.1,0,0,1,68.91,35.08,231.47,231.47,0,0,1,53,53.55,216.63,216.63,0,0,1,32.23,68.08,288.16,288.16,0,0,1,.5,149.85c-13.09,49.18-39.31,95-75.83,132.53C654.85,540.48,610.92,618.75,589.92,703a202,202,0,0,1-29.75,64.23A216.06,216.06,0,0,1,510.52,818a230.66,230.66,0,0,1-64.83,33.29,240.24,240.24,0,0,1-75.08,11.94,302,302,0,0,1-111.8-21.15,286.81,286.81,0,0,1-90.94-57.48,265.44,265.44,0,0,1-60.95-84.71A249.44,249.44,0,0,1,84.7,596.67V279.09a237.66,237.66,0,0,1,21.18-98.35A253.06,253.06,0,0,1,164,100,273.71,273.71,0,0,1,250.7,45.17,288.06,288.06,0,0,1,357.34,25h201.2m0-25H357.34C193,0,59.7,125,59.7,279.09V596.67c0,161,139.2,291.54,310.91,291.54h0c115.44,0,216-73.89,243.53-179h0c20-80.22,61.53-154.28,120.75-215.12h0c80.52-82.72,111.18-197.92,81.54-306.41h0C786.25,77.24,680.12,0,558.54,0Z"/><path class="cls-3" d="M716.79,156.78a178.39,178.39,0,0,0-40.94-41.29A193.79,193.79,0,0,0,621.71,88a203.5,203.5,0,0,0-63.18-10H357.33c-121.11,0-219.64,90.21-219.64,201.09V596.67c0,56.08,23.59,109.09,66.42,149.25a234.27,234.27,0,0,0,74.23,46.87,249.05,249.05,0,0,0,92.26,17.42,187.43,187.43,0,0,0,58.54-9.29,178.21,178.21,0,0,0,50-25.64A163.72,163.72,0,0,0,516.66,737a149.44,149.44,0,0,0,21.91-47.13c23.3-93.22,71.84-179.7,140.42-250.16,61.32-63,84.57-149.51,62.18-231.44A163.67,163.67,0,0,0,716.79,156.78Z"/><path class="cls-2" d="M298.84,253.88l82.09-25.57a258.86,258.86,0,0,1,157.62,1.19L588,245.71c17.53,5.76,13.37,31.52-5.09,31.52H563.68A65.63,65.63,0,0,0,500,326.73L473.38,432.48c-4.12,16.39-27.95,15.09-30.26-1.64l-9.3-67.57a80.56,80.56,0,0,0-59-66.74l-34.55-9.29a22.59,22.59,0,0,0-3.93-.68l-34.17-2.84C285.34,282.33,282.74,258.9,298.84,253.88Z"/></svg>