<svg id="Layer_2" data-name="Layer 2" xmlns="http://www.w3.org/2000/svg" viewBox="0 0 887.22 888.21"><defs><style>.cls-1{fill:#5ebe00;}.cls-2{fill:#9dc969;}</style></defs><title>Sandwich</title><rect class="cls-1" y="1" width="887.3" height="887.3"/><path class="cls-2" d="M663.83,796.09a10.63,10.63,0,0,1-10.3,13.26H233.77a10.64,10.64,0,0,1-10.31-13.26l9.17-35.94a85.61,85.61,0,0,0-7.31-61.74h.29c-.42-.8-.86-1.58-1.31-2.37L359.16,561.18a24.76,24.76,0,0,0-35-35L189.39,660.91v1.51a85.39,85.39,0,0,0-40.19-10,87.2,87.2,0,0,0-21.55,2.73l-35.94,9.17a11.36,11.36,0,0,1-2.73.35A10.62,10.62,0,0,1,78.45,654V234.27A10.62,10.62,0,0,1,89,223.61a11.36,11.36,0,0,1,2.73.35l35.94,9.17a87.14,87.14,0,0,0,21.55,2.73,85.42,85.42,0,0,0,40.19-10v.23c.27-.13.52-.27.79-.42l134,134a24.76,24.76,0,0,0,35-35l-134-134c.15-.27.29-.52.42-.79h-.29a85.61,85.61,0,0,0,7.31-61.74l-9.17-35.94A10.64,10.64,0,0,1,233.77,79H653.53a10.63,10.63,0,0,1,10.3,13.26l-9.17,35.94A85.67,85.67,0,0,0,662,189.89h-1.57L525.66,324.64a24.76,24.76,0,0,0,35,35L695.54,224.8c.79.45,1.57.89,2.37,1.31v-.23a85.42,85.42,0,0,0,40.19,10,87.2,87.2,0,0,0,21.55-2.73L795.59,224a11.3,11.3,0,0,1,2.73-.35,10.62,10.62,0,0,1,10.53,10.66V654a10.62,10.62,0,0,1-10.53,10.66,11.3,11.3,0,0,1-2.73-.35l-35.94-9.17a87.2,87.2,0,0,0-21.55-2.73,85.42,85.42,0,0,0-40.19,10v-.23c-.27.13-.52.27-.79.42L560.68,526.17a24.76,24.76,0,0,0-35,35L662.11,697.62c-.15.27-.29.52-.42.79H662a85.67,85.67,0,0,0-7.32,61.74Z"/><path class="cls-1" d="M853.53,164a87.47,87.47,0,0,0-75.76-15.79l-36.07,9.21a9.31,9.31,0,0,1-11.31-11.31L739.6,110A88,88,0,0,0,654.3.25H233A88,88,0,0,0,147.7,110l9.21,36.07a9.31,9.31,0,0,1-11.31,11.31l-36.07-9.21A88,88,0,0,0-.25,233.5V654.8a88.12,88.12,0,0,0,87.82,88.07,89.19,89.19,0,0,0,22-2.77l36.07-9.21a9.31,9.31,0,0,1,11.31,11.31l-9.21,36.07A88,88,0,0,0,233,888.05H654.3a88,88,0,0,0,85.3-109.78l-9.21-36.07a9.31,9.31,0,0,1,11.31-11.31l36.07,9.21a88,88,0,0,0,109.78-85.3V233.5A87.44,87.44,0,0,0,853.53,164ZM846.7,654a48.4,48.4,0,0,1-60.47,47l-35.93-9.17a49.47,49.47,0,0,0-12.2-1.55c-30.41,0-54.81,29-46.76,60.51l9.16,35.93a48.48,48.48,0,0,1-47,60.47H233.77a48.48,48.48,0,0,1-47-60.47L196,750.8c8-31.53-16.35-60.51-46.76-60.51a49.47,49.47,0,0,0-12.2,1.55L101.06,701A49.09,49.09,0,0,1,89,702.54,48.52,48.52,0,0,1,40.6,654V234.27a48.39,48.39,0,0,1,60.46-47L137,196.46A49.47,49.47,0,0,0,149.2,198c30.41,0,54.8-29,46.76-60.51l-9.17-35.94a48.48,48.48,0,0,1,47-60.46H653.53a48.47,48.47,0,0,1,47,60.46l-9.16,35.94C683.29,169,707.69,198,738.1,198a49.47,49.47,0,0,0,12.2-1.55l35.93-9.17a49.23,49.23,0,0,1,12.09-1.53,48.52,48.52,0,0,1,48.38,48.51Z"/><path class="cls-2" d="M798.31,185.76a49.21,49.21,0,0,0-12.08,1.53l-35.93,9.17A49.53,49.53,0,0,1,738.1,198c-30.41,0-54.81-29-46.76-60.51l9.17-35.93a48.48,48.48,0,0,0-47-60.47H233.77a48.48,48.48,0,0,0-47,60.47L196,137.5C204,169,179.61,198,149.2,198a49.47,49.47,0,0,1-12.2-1.55l-35.94-9.17A49.09,49.09,0,0,0,89,185.76,48.52,48.52,0,0,0,40.6,234.27V654A48.52,48.52,0,0,0,89,702.54,49.09,49.09,0,0,0,101.06,701L137,691.84a49,49,0,0,1,12.2-1.55c30.41,0,54.8,29,46.76,60.51l-9.17,35.93a48.48,48.48,0,0,0,47,60.47H653.53a48.48,48.48,0,0,0,47-60.47l-9.17-35.93c-8.05-31.54,16.35-60.51,46.76-60.51a49.47,49.47,0,0,1,12.2,1.55L786.23,701a49.21,49.21,0,0,0,12.08,1.53A48.52,48.52,0,0,0,846.7,654V234.27A48.52,48.52,0,0,0,798.31,185.76ZM808.85,654a10.62,10.62,0,0,1-10.54,10.66,10.82,10.82,0,0,1-2.72-.36l-35.94-9.16a87.2,87.2,0,0,0-21.55-2.73,85.36,85.36,0,0,0-40.19,10v-.23c-.27.13-.52.27-.79.42L560.68,526.17a24.76,24.76,0,0,0-35,35L662.11,697.62c-.15.27-.29.52-.42.79H662a85.61,85.61,0,0,0-7.31,61.74l9.16,35.94a10.63,10.63,0,0,1-10.3,13.26H233.77a10.63,10.63,0,0,1-10.3-13.26l9.16-35.94a85.61,85.61,0,0,0-7.31-61.74h.29c-.42-.8-.86-1.58-1.31-2.37L359.16,561.18a24.76,24.76,0,0,0-35-35L189.39,660.91v1.51a85.39,85.39,0,0,0-40.19-10,87.2,87.2,0,0,0-21.55,2.73l-35.94,9.16a10.84,10.84,0,0,1-2.73.36A10.62,10.62,0,0,1,78.45,654V234.27A10.62,10.62,0,0,1,89,223.61a10.84,10.84,0,0,1,2.73.36l35.94,9.16a87.14,87.14,0,0,0,21.55,2.73,85.42,85.42,0,0,0,40.19-10v.23c.27-.13.52-.27.79-.42l134,134a24.76,24.76,0,0,0,35-35l-134-134c.15-.27.29-.52.42-.79h-.29a85.61,85.61,0,0,0,7.31-61.74l-9.16-35.94A10.63,10.63,0,0,1,233.77,79H653.53a10.63,10.63,0,0,1,10.3,13.26l-9.16,35.94A85.61,85.61,0,0,0,662,189.89h-1.57L525.66,324.64a24.76,24.76,0,0,0,35,35L695.54,224.8c.79.45,1.57.89,2.37,1.31v-.23a85.36,85.36,0,0,0,40.19,10,87.2,87.2,0,0,0,21.55-2.73L795.59,224a10.82,10.82,0,0,1,2.72-.36,10.62,10.62,0,0,1,10.54,10.66Z"/></svg>