<svg id="Layer_2" data-name="Layer 2" xmlns="http://www.w3.org/2000/svg" viewBox="0 0 1013.96 1013.96"><title>Sandwich</title><path d="M917.22,226.86a87.47,87.47,0,0,0-75.76-15.78l-36.07,9.2A9.3,9.3,0,0,1,794.08,209l9.21-36.07A88,88,0,0,0,718,63.13H322.64a139.72,139.72,0,0,1,5.43,78.73H718a9.3,9.3,0,0,1,9,11.59l-9.2,36.07a87.26,87.26,0,0,0,7.13,62.42L589.36,387.52a24.76,24.76,0,0,0,35,35L759.24,287.67a86.55,86.55,0,0,0,43.51,11.69,89.67,89.67,0,0,0,22.1-2.79l36.07-9.2a9.3,9.3,0,0,1,11.59,9V717.68a9.3,9.3,0,0,1-11.59,9l-36.07-9.2a87.24,87.24,0,0,0-64,8L624.37,589a24.76,24.76,0,0,0-35,35L725.8,760.5a87.25,87.25,0,0,0-8,64L727,860.6a9.3,9.3,0,0,1-9,11.6H466.62a124.75,124.75,0,0,1,24.95,78.72H718a88,88,0,0,0,85.29-109.77l-9.21-36.08a9.3,9.3,0,0,1,11.31-11.3l36.07,9.2a88,88,0,0,0,109.78-85.29V296.37A87.47,87.47,0,0,0,917.22,226.86Z"/></svg>