<svg id="Layer_2" data-name="Layer 2" xmlns="http://www.w3.org/2000/svg" viewBox="0 0 1013.96 1013.96"><title>Sandwich</title><path d="M928.37,277.55h0a70,70,0,0,0,24.6-53.3V145.33a83.84,83.84,0,0,0-83.83-83.84H322a139.47,139.47,0,0,1-2.7,107.06,180.3,180.3,0,0,1,26.35-1.94,178.27,178.27,0,1,1-25.48,354.72,138.89,138.89,0,0,1,7.19,21.51,160.29,160.29,0,0,1,103.05,273.3A162.38,162.38,0,0,1,413,831.2a125.17,125.17,0,0,1,78.48,121.55H863.29A89.68,89.68,0,0,0,953,863.07V437.45a70,70,0,0,0-24.6-53.3h0A70,70,0,0,1,928.37,277.55Z"/></svg>