<svg id="Layer_2" data-name="Layer 2" xmlns="http://www.w3.org/2000/svg" viewBox="0 0 891.18 891.18"><defs><style>.cls-1{fill:#ffe8ac;}.cls-2{fill:#b5895d;}.cls-3{fill:#ffffe4;}</style></defs><title>Sandwich</title><rect class="cls-1" y="487.33" width="891.18" height="403.85"/><polygon class="cls-2" points="0 0 0 650.86 314.68 505.05 576.49 505.05 891.18 650.86 891.18 0 0 0"/><path class="cls-3" d="M802.69,584.92c0-.55-.19-4.88-.19-5.43-.33-80.67-70.27-146.34-150.94-145.69-14,.11-30.65,2.22-43.5,6-22.38,6.59-33.87,30.57-32.32,53.85l14.85,223.87,2.65,39.89q2.19,33,6.31,65.79L603.19,848a33,33,0,0,1-29.47,37.67c-26.8,2.62-69.38,5.47-128.13,5.47s-101.33-2.85-128.13-5.47A33,33,0,0,1,288,848l3.63-24.78q4.13-32.85,6.32-65.9l2.6-39.27,14.92-224.76c1.58-23.85-8.15-48.9-31.21-55.22-14.19-3.88-36.2-9-51.75-8.44C157,432.55,89.08,490.21,87.38,565.8c0,2.21-1.55,18.43-1.5,20.62.23,11.23-7.33,7.88-12.57-2.06C42.41,525.71,27.75,465.7,27.75,394.8c0-233,184.81-388.69,417.84-388.69S860.81,162.85,860.81,395.87c0,69.9-11.53,133.81-41.62,191.87C814.05,597.64,802.61,596.08,802.69,584.92Z"/><path class="cls-1" d="M860.81,410.55C858.61,475,846,529.82,818.06,583.8c-5.13,9.9-14.13,12.85-14.06,1.69,0-.55,1.13-10.14,1.13-10.69-.34-80.67-69.52-149.71-150.19-149.06-14.05.11-36.09,6.9-48.94,10.68-22.39,6.58-31.81,33.95-30.26,57.24l14.85,223.86,2.65,39.9q2.19,33,6.31,65.78L603.19,848a33,33,0,0,1-29.47,37.67c-26.8,2.62-69.38,5.47-128.13,5.47s-101.33-2.85-128.13-5.47A33,33,0,0,1,288,848l3.63-24.78q4.13-32.85,6.32-65.9l2.6-39.27,14.92-224.75c1.58-23.86-13.21-49.47-36.27-55.79-14.19-3.88-34.22-7.06-49.78-6.47-75.55,2.88-142,66.45-143.72,142,0,2.22-.19,8.44.19,13.31.86,11.2-4.89,10.51-10.13.57C47,532.39,30,476,27.75,410.55Z"/><path class="cls-2" d="M445.59,0C212.56,0,23.67,162.84,23.67,395.87a420,420,0,0,0,48.4,196.39,10.2,10.2,0,0,0,9.21,5.67A10.6,10.6,0,0,0,92.06,587c0-2.5,0-5,0-7.53,2.2-76.92,68.57-142.17,145.51-143.16h1.93a147.49,147.49,0,0,1,39.38,5.32,50.16,50.16,0,0,1,36.55,51.73l-.78,11.72h20.64a10.07,10.07,0,0,0,10.05-9.41l0-.32a80.55,80.55,0,0,0-58.91-82.75,177.89,177.89,0,0,0-47-6.29l-2.31,0c-62.7.8-119.82,37.48-150.83,89.84a11.23,11.23,0,0,1-20.54-2.93c-.16-.61-.31-1.22-.47-1.83a393.75,393.75,0,0,1-11.71-95.51c0-52.55,10.29-102.34,30.57-148a345.73,345.73,0,0,1,83.25-115.2C239.89,66.47,338.65,30,445.59,30s205.7,36.47,278.09,102.69a345.72,345.72,0,0,1,83.26,115.2c20.28,45.64,30.57,95.43,30.57,148a394.17,394.17,0,0,1-11.39,94.21l-.07.28a11.23,11.23,0,0,1-20.54,3,177.82,177.82,0,0,0-152.7-87.06l-2.93,0a177,177,0,0,0-47.17,7.17c-35.44,10.42-59.38,45-56.91,82.16h0a10.08,10.08,0,0,0,10.05,9.41h20.64l-.76-11.4a50.17,50.17,0,0,1,35.92-51.53,147.3,147.3,0,0,1,38.73-5.82l2.46,0c80.7,0,147.21,65.9,147.54,146.89,0,.55,0,1.1,0,1.65a10.52,10.52,0,0,0,10.74,10.71,10.28,10.28,0,0,0,9.3-5.76,420.2,420.2,0,0,0,47.1-193.9C867.51,162.84,678.6,0,445.59,0Z"/></svg>