<svg id="Layer_2" data-name="Layer 2" xmlns="http://www.w3.org/2000/svg" viewBox="0 0 1013.96 1013.96"><title>Sandwich</title><path d="M953,125.46V61.59H324.63c0,1.56,0,3.11-.11,4.65a139.5,139.5,0,0,1-5.24,99.93,180.3,180.3,0,0,1,26.35-1.94A177.71,177.71,0,0,1,474.28,219.1,169.09,169.09,0,1,1,462,477.53a177.59,177.59,0,0,1-116.39,43.23A179.91,179.91,0,0,1,320.15,519a138.5,138.5,0,0,1,7.44,22.52A160.29,160.29,0,0,1,473.2,737.66,53.74,53.74,0,0,1,422,822.55q-4.39,3.81-9,7.26a125.16,125.16,0,0,1,78.4,123H660.28a142.85,142.85,0,1,1,138.27,0H953V373a123.79,123.79,0,0,1,0-247.58Z"/></svg>